<svg id="bg" xmlns="http://www.w3.org/2000/svg" xmlns:xlink="http://www.w3.org/1999/xlink" viewBox="0 0 4000 8000"><defs><style>.cls-1,.cls-2{fill:none;}.cls-2{stroke:#758e70;stroke-miterlimit:10;stroke-width:3px;}.cls-3{opacity:0.5;fill:url(#新建图案_6);}</style><pattern id="新建图案_6" data-name="新建图案 6" width="50" height="50" patternTransform="translate(-2190 1916)" patternUnits="userSpaceOnUse" viewBox="0 0 50 50"><rect class="cls-1" width="50" height="50"/><line class="cls-2" x1="220.04" y1="29.96" x2="17.5" y2="232.5"/><line class="cls-2" x1="170.04" y1="29.96" x2="-32.5" y2="232.5"/><line class="cls-2" x1="120.04" y1="29.96" x2="-82.5" y2="232.5"/><line class="cls-2" x1="70.04" y1="29.96" x2="-132.5" y2="232.5"/><line class="cls-2" x1="20.04" y1="29.96" x2="-182.5" y2="232.5"/><line class="cls-2" x1="220.04" y1="-20.04" x2="17.5" y2="182.5"/><line class="cls-2" x1="170.04" y1="-20.04" x2="-32.5" y2="182.5"/><line class="cls-2" x1="120.04" y1="-20.04" x2="-82.5" y2="182.5"/><line class="cls-2" x1="70.04" y1="-20.04" x2="-132.5" y2="182.5"/><line class="cls-2" x1="20.04" y1="-20.04" x2="-182.5" y2="182.5"/><line class="cls-2" x1="220.04" y1="-70.04" x2="17.5" y2="132.5"/><line class="cls-2" x1="170.04" y1="-70.04" x2="-32.5" y2="132.5"/><line class="cls-2" x1="120.04" y1="-70.04" x2="-82.5" y2="132.5"/><line class="cls-2" x1="70.04" y1="-70.04" x2="-132.5" y2="132.5"/><line class="cls-2" x1="20.04" y1="-70.04" x2="-182.5" y2="132.5"/><line class="cls-2" x1="220.04" y1="-120.04" x2="17.5" y2="82.5"/><line class="cls-2" x1="170.04" y1="-120.04" x2="-32.5" y2="82.5"/><line class="cls-2" x1="120.04" y1="-120.04" x2="-82.5" y2="82.5"/><line class="cls-2" x1="70.04" y1="-120.04" x2="-132.5" y2="82.5"/><line class="cls-2" x1="20.04" y1="-120.04" x2="-182.5" y2="82.5"/><line class="cls-2" x1="220.04" y1="-170.04" x2="17.5" y2="32.5"/><line class="cls-2" x1="170.04" y1="-170.04" x2="-32.5" y2="32.5"/><line class="cls-2" x1="120.04" y1="-170.04" x2="-82.5" y2="32.5"/><line class="cls-2" x1="70.04" y1="-170.04" x2="-132.5" y2="32.5"/><line class="cls-2" x1="20.04" y1="-170.04" x2="-182.5" y2="32.5"/></pattern></defs><title>bg</title><polygon class="cls-3" points="4000 8000 0 7986.8 0 0 4000 0 4000 8000"/></svg>