<svg xmlns="http://www.w3.org/2000/svg" viewBox="0 0 1934 51.4" preserveAspectRatio="meet"><defs><style>.cls-1{fill:#507455;}.cls-2{fill:#314a40;stroke:#4a6e50;stroke-miterlimit:10;stroke-width:7px;}</style></defs><title>timeline</title><g id="Layer_2" data-name="Layer 2"><g id="图层_1" data-name="图层 1"><polygon class="cls-1" points="590.68 2.91 601.84 2.91 613 25.66 601.84 48.4 590.68 48.4 601.84 25.66 590.68 2.91"/><polygon class="cls-1" points="617.68 2.91 628.84 2.91 640 25.66 628.84 48.4 617.68 48.4 628.84 25.66 617.68 2.91"/><polygon class="cls-1" points="645.68 2.91 656.84 2.91 668 25.66 656.84 48.4 645.68 48.4 656.84 25.66 645.68 2.91"/><polygon class="cls-1" points="1398.68 5.91 1409.84 5.91 1421 28.66 1409.84 51.4 1398.68 51.4 1409.84 28.66 1398.68 5.91"/><polygon class="cls-1" points="1425.68 5.91 1436.84 5.91 1448 28.66 1436.84 51.4 1425.68 51.4 1436.84 28.66 1425.68 5.91"/><polygon class="cls-1" points="1453.68 5.91 1464.84 5.91 1476 28.66 1464.84 51.4 1453.68 51.4 1464.84 28.66 1453.68 5.91"/><line class="cls-2" x1="1495" y1="25" x2="1934" y2="25"/><line class="cls-2" x1="693.15" y1="25" x2="1389.15" y2="25"/><line class="cls-2" y1="25" x2="572.54" y2="25"/></g><g id="text"><circle class="cls-1" cx="263.5" cy="25.5" r="25.5"/><circle class="cls-1" cx="1042.5" cy="25.5" r="25.5"/></g></g></svg>
