<svg xmlns="http://www.w3.org/2000/svg" xmlns:xlink="http://www.w3.org/1999/xlink" viewBox="0 0 372 85.71"><defs><style>.cls-1,.cls-2{fill:none;}.cls-2{stroke:#2a8476;stroke-miterlimit:10;stroke-width:2px;}.cls-3{fill:url(#新建图案_3);}.cls-4{fill:#fbe12e;}.cls-5{font-size:33.56px;fill:#1a1a1a;font-family:MicrosoftYaHei-Bold, Microsoft YaHei;font-weight:700;}.cls-6{letter-spacing:-0.1em;}</style><pattern id="新建图案_3" data-name="新建图案 3" width="20" height="20" patternUnits="userSpaceOnUse" viewBox="0 0 20 20"><rect class="cls-1" width="20" height="20"/><line class="cls-2" x1="95.04" y1="4.96" x2="4.96" y2="95.04"/><line class="cls-2" x1="75.04" y1="4.96" x2="-15.04" y2="95.04"/><line class="cls-2" x1="55.04" y1="4.96" x2="-35.04" y2="95.04"/><line class="cls-2" x1="35.04" y1="4.96" x2="-55.04" y2="95.04"/><line class="cls-2" x1="15.04" y1="4.96" x2="-75.04" y2="95.04"/><line class="cls-2" x1="95.04" y1="-15.04" x2="4.96" y2="75.04"/><line class="cls-2" x1="75.04" y1="-15.04" x2="-15.04" y2="75.04"/><line class="cls-2" x1="55.04" y1="-15.04" x2="-35.04" y2="75.04"/><line class="cls-2" x1="35.04" y1="-15.04" x2="-55.04" y2="75.04"/><line class="cls-2" x1="15.04" y1="-15.04" x2="-75.04" y2="75.04"/><line class="cls-2" x1="95.04" y1="-35.04" x2="4.96" y2="55.04"/><line class="cls-2" x1="75.04" y1="-35.04" x2="-15.04" y2="55.04"/><line class="cls-2" x1="55.04" y1="-35.04" x2="-35.04" y2="55.04"/><line class="cls-2" x1="35.04" y1="-35.04" x2="-55.04" y2="55.04"/><line class="cls-2" x1="15.04" y1="-35.04" x2="-75.04" y2="55.04"/><line class="cls-2" x1="95.04" y1="-55.04" x2="4.96" y2="35.04"/><line class="cls-2" x1="75.04" y1="-55.04" x2="-15.04" y2="35.04"/><line class="cls-2" x1="55.04" y1="-55.04" x2="-35.04" y2="35.04"/><line class="cls-2" x1="35.04" y1="-55.04" x2="-55.04" y2="35.04"/><line class="cls-2" x1="15.04" y1="-55.04" x2="-75.04" y2="35.04"/><line class="cls-2" x1="95.04" y1="-75.04" x2="4.96" y2="15.04"/><line class="cls-2" x1="75.04" y1="-75.04" x2="-15.04" y2="15.04"/><line class="cls-2" x1="55.04" y1="-75.04" x2="-35.04" y2="15.04"/><line class="cls-2" x1="35.04" y1="-75.04" x2="-55.04" y2="15.04"/><line class="cls-2" x1="15.04" y1="-75.04" x2="-75.04" y2="15.04"/></pattern></defs><title>title-team</title><g id="Layer_2" data-name="Layer 2"><g id="图层_1" data-name="图层 1"><rect class="cls-3" y="17.71" width="285" height="68"/></g><g id="text"><rect class="cls-4" x="15" width="357" height="71.71"/><text class="cls-5" transform="translate(91.75 46.07)"><tspan class="cls-6">T</tspan><tspan x="17.68" y="0">eam x SCUT</tspan></text></g></g></svg>