<?xml version="1.0" encoding="utf-8"?>
<!-- Generator: Adobe Illustrator 23.0.3, SVG Export Plug-In . SVG Version: 6.00 Build 0)  -->
<svg version="1.1" id="图层_1" xmlns="http://www.w3.org/2000/svg" xmlns:xlink="http://www.w3.org/1999/xlink" x="0px" y="0px"
	 viewBox="0 0 368 82.7" style="enable-background:new 0 0 368 82.7;" xml:space="preserve">
<style type="text/css">
	.st0{fill:none;}
	.st1{fill:none;stroke:#2A8476;stroke-width:2;stroke-miterlimit:10;}
	.st2{fill:url(#SVGID_1_);}
	.st3{fill:#FBE12E;}
	.st4{fill:#1A1A1A;}
	.st5{font-family:'MicrosoftYaHei-Bold';}
	.st6{font-size:33.56px;}
</style>
<pattern  y="82.7" width="20" height="20" patternUnits="userSpaceOnUse" id="新建图案_3" viewBox="75.7 -95.7 20 20" style="overflow:visible;">
	<g>
		<rect x="75.7" y="-95.7" class="st0" width="20" height="20"/>
		<rect x="75.7" y="-95.7" class="st0" width="20" height="20"/>
		<line class="st1" x1="170.8" y1="-80.7" x2="80.7" y2="-170.8"/>
		<line class="st1" x1="150.8" y1="-80.7" x2="60.7" y2="-170.8"/>
		<line class="st1" x1="130.8" y1="-80.7" x2="40.7" y2="-170.8"/>
		<line class="st1" x1="110.8" y1="-80.7" x2="20.7" y2="-170.8"/>
		<line class="st1" x1="90.8" y1="-80.7" x2="0.7" y2="-170.8"/>
		<line class="st1" x1="170.8" y1="-60.7" x2="80.7" y2="-150.8"/>
		<line class="st1" x1="150.8" y1="-60.7" x2="60.7" y2="-150.8"/>
		<line class="st1" x1="130.8" y1="-60.7" x2="40.7" y2="-150.8"/>
		<line class="st1" x1="110.8" y1="-60.7" x2="20.7" y2="-150.8"/>
		<line class="st1" x1="90.8" y1="-60.7" x2="0.7" y2="-150.8"/>
		<line class="st1" x1="170.8" y1="-40.7" x2="80.7" y2="-130.8"/>
		<line class="st1" x1="150.8" y1="-40.7" x2="60.7" y2="-130.8"/>
		<line class="st1" x1="130.8" y1="-40.7" x2="40.7" y2="-130.8"/>
		<line class="st1" x1="110.8" y1="-40.7" x2="20.7" y2="-130.8"/>
		<line class="st1" x1="90.8" y1="-40.7" x2="0.7" y2="-130.8"/>
		<line class="st1" x1="170.8" y1="-20.7" x2="80.7" y2="-110.8"/>
		<line class="st1" x1="150.8" y1="-20.7" x2="60.7" y2="-110.8"/>
		<line class="st1" x1="130.8" y1="-20.7" x2="40.7" y2="-110.8"/>
		<line class="st1" x1="110.8" y1="-20.7" x2="20.7" y2="-110.8"/>
		<line class="st1" x1="90.8" y1="-20.7" x2="0.7" y2="-110.8"/>
		<line class="st1" x1="170.8" y1="-0.7" x2="80.7" y2="-90.8"/>
		<line class="st1" x1="150.8" y1="-0.7" x2="60.7" y2="-90.8"/>
		<line class="st1" x1="130.8" y1="-0.7" x2="40.7" y2="-90.8"/>
		<line class="st1" x1="110.8" y1="-0.7" x2="20.7" y2="-90.8"/>
		<line class="st1" x1="90.8" y1="-0.7" x2="0.7" y2="-90.8"/>
	</g>
</pattern>
<title>title-sdme2020</title>
<g id="Layer_2">
	<g>
		<pattern  id="SVGID_1_" xlink:href="#鏂板缓鍥炬_3" patternTransform="matrix(1 0 0 -1 5 -16148.9141)">
		</pattern>
		<rect x="0" y="10.7" class="st2" width="282" height="72"/>
	</g>
	<g id="text">
		<rect x="11" y="0" class="st3" width="357" height="71.7"/>
		<text transform="matrix(1 0 0 1 87.7628 46.07)" class="st4 st5 st6">Team SCUT</text>
	</g>
</g>
</svg>
